<svg id="Capa_1" enable-background="new 0 0 512 512" height="512" viewBox="0 0 512 512" width="512" xmlns="http://www.w3.org/2000/svg"><g><path d="m497 349.63h-482c-8.284 0-15 6.716-15 15v36.433c0 8.284 6.716 15 15 15h63.301v28.847c0 8.284 6.716 15 15 15s15-6.716 15-15v-28.847h295.408v28.847c0 8.284 6.716 15 15 15s15-6.716 15-15v-28.847h63.291c8.284 0 15-6.716 15-15v-36.433c0-8.284-6.716-15-15-15z"/><g><g><path d="m449.548 270.463-116.27-201.386c-4.142-7.174-13.316-9.633-20.49-5.49l-27.798 16.049v80.829l88.77 153.754c4.142 7.175 13.316 9.633 20.49 5.491l49.808-28.757c7.174-4.142 9.632-13.316 5.49-20.49z"/></g><g><path d="m254.989 304.63v-237.54c0-8.284-6.716-15-15-15h-57.513c-8.284 0-15 6.716-15 15v237.54c0 8.284 6.716 15 15 15h57.513c8.285 0 15-6.715 15-15z"/></g><g><path d="m137.476 304.63v-237.54c0-8.284-6.716-15-15-15h-57.513c-8.284 0-15 6.716-15 15v237.54c0 8.284 6.716 15 15 15h57.513c8.284 0 15-6.715 15-15z"/></g></g></g></svg>