<svg id="Capa_1" enable-background="new 0 0 512 512" height="512" viewBox="0 0 512 512" width="512" xmlns="http://www.w3.org/2000/svg"><g><path d="m143.348 45.992-35.788-5.2-16.005-32.43c-5.502-11.149-21.4-11.149-26.902 0l-16.005 32.43-35.788 5.2c-12.304 1.788-17.217 16.907-8.314 25.585l25.897 25.243-6.114 35.644c-2.102 12.253 10.76 21.598 21.764 15.813l32.011-16.829 32.01 16.829c11.004 5.785 23.866-3.559 21.764-15.812l-6.113-35.644 25.896-25.243c8.903-8.679 3.99-23.798-8.313-25.586z"/><path d="m143.348 226.976-35.788-5.2-16.005-32.43c-5.502-11.149-21.4-11.149-26.902 0l-16.005 32.43-35.788 5.2c-12.303 1.788-17.216 16.907-8.313 25.585l25.897 25.243-6.114 35.644c-2.102 12.254 10.76 21.598 21.764 15.813l32.011-16.829 32.01 16.829c11.004 5.785 23.866-3.559 21.764-15.812l-6.113-35.644 25.896-25.243c8.902-8.679 3.989-23.799-8.314-25.586z"/><path d="m143.348 407.959-35.788-5.2-16.005-32.43c-5.502-11.149-21.4-11.149-26.902 0l-16.005 32.43-35.788 5.2c-12.303 1.788-17.216 16.907-8.313 25.585l25.897 25.243-6.114 35.644c-2.102 12.253 10.76 21.598 21.764 15.813l32.011-16.829 32.01 16.829c11.004 5.785 23.866-3.559 21.764-15.812l-6.113-35.644 25.896-25.243c8.902-8.679 3.989-23.798-8.314-25.586z"/><path d="m207 306h220c8.284 0 15-6.716 15-15v-70c0-8.284-6.716-15-15-15h-220c-8.284 0-15 6.716-15 15v70c0 8.284 6.716 15 15 15z"/><path d="m497 387h-290c-8.284 0-15 6.716-15 15v70c0 8.284 6.716 15 15 15h290c8.284 0 15-6.716 15-15v-70c0-8.284-6.716-15-15-15z"/><path d="m207 125h150c8.284 0 15-6.716 15-15v-70c0-8.284-6.716-15-15-15h-150c-8.284 0-15 6.716-15 15v70c0 8.284 6.716 15 15 15z"/></g></svg>