<svg width="105" height="48" viewBox="0 0 105 48" fill="none" xmlns="http://www.w3.org/2000/svg">
<path d="M19.0088 38.2866H26.108L21.3016 47.6755H19.0088C8.51299 47.6755 0 39.0368 0 28.3761C0 23.0524 2.12722 18.2243 5.56632 14.7325C9.00557 11.2408 13.761 9.08105 19.0045 9.08105H21.2973L26.1038 18.47H19.0045C13.6208 18.47 9.24335 22.9144 9.24335 28.3805C9.24335 33.8465 13.6208 38.2909 19.0045 38.2909L19.0088 38.2866Z" fill="white"/>
<path d="M84.0001 0.00857478V28.5334C84.0001 33.8151 81.8729 38.6048 78.4295 42.0689C74.9904 45.533 70.2433 47.6755 64.9912 47.6755H62.6984L57.8921 38.3611H64.9997C70.375 38.3611 74.761 33.9519 74.761 28.5292C74.761 23.1064 70.375 18.6973 64.9997 18.6973H57.8921L62.6984 9.38292H64.9912C68.562 9.38292 71.9078 10.3793 74.761 12.0985V0H84.0001V0.00857478Z" fill="white"/>
<path d="M56.7566 47.6755H46.5801L42.002 38.5367L37.4197 47.6755H27.2432L46.5801 9.08105H56.7566L47.0901 28.3761L56.7566 47.6755Z" fill="white"/>
<path d="M39.7296 13.3164L34.5309 23.8378L27.2432 9.08105H37.6408L39.7296 13.3164Z" fill="white"/>
<rect x="88.541" y="10.2163" width="4.54053" height="15.8918" transform="rotate(-90 88.541 10.2163)" fill="#1D67FA"/>
<rect x="94.2158" width="4.54053" height="15.8918" fill="#1D67FA"/>
</svg>
